<?xml version="1.0" standalone="no"?><svg xmlns="http://www.w3.org/2000/svg" viewBox="0 0 1440 320"><path fill="#b33bf6" fill-opacity="1" d="M0,32L17.1,64C34.3,96,69,160,103,186.7C137.1,213,171,203,206,197.3C240,192,274,192,309,197.3C342.9,203,377,213,411,224C445.7,235,480,245,514,224C548.6,203,583,149,617,112C651.4,75,686,53,720,48C754.3,43,789,53,823,85.3C857.1,117,891,171,926,202.7C960,235,994,245,1029,234.7C1062.9,224,1097,192,1131,165.3C1165.7,139,1200,117,1234,106.7C1268.6,96,1303,96,1337,85.3C1371.4,75,1406,53,1423,42.7L1440,32L1440,320L1422.9,320C1405.7,320,1371,320,1337,320C1302.9,320,1269,320,1234,320C1200,320,1166,320,1131,320C1097.1,320,1063,320,1029,320C994.3,320,960,320,926,320C891.4,320,857,320,823,320C788.6,320,754,320,720,320C685.7,320,651,320,617,320C582.9,320,549,320,514,320C480,320,446,320,411,320C377.1,320,343,320,309,320C274.3,320,240,320,206,320C171.4,320,137,320,103,320C68.6,320,34,320,17,320L0,320Z"></path></svg>